# xmcd
#
# Track frame offsets:
#	150
#	20235
#	35922
#	53272
#	71982
#	88880
#	99330
#	110572
#	126107
#	140067
#	160810
#	178210
#	191585
#	207340
#	224857
#
# Disc length: 3219 seconds
#
# Revision: 4
# Processed by: cddbd v1.5.2PL0 Copyright (c) Steve Scherf et al.
# Submitted via: EasyCDDAExtractor 2010.6.0.0
#
DISCID=f00c910f
DTITLE=Various Artist - O MAPA DA MINA NACIONAL -1993 [SOM LIVRE]
DYEAR=1993
DGENRE=Blues
TTITLE0=DJAVAN - LINHA DO EQUADOR (BY DJ GILMAR SINISTRO)
TTITLE1=JOÃO BOSCO - MEMÓRIA DA PELE (BY DJ GILMAR SINISTRO)
TTITLE2=SKANK - GENTIL LOUCURA (BY DJ GILMAR SINISTRO)
TTITLE3=EMILIO SANTIAGO - É DEMAIS PARA MIM (BY DJ GILMAR SINISTRO)
TTITLE4=DEBORAH BLANDO - A MAÇÃ (BY DJ GILMAR SINISTRO)
TTITLE5=HERBET VIANA - LIÇÃO DE ASTRONOMIA (BY DJ GILMAR SINISTRO)
TTITLE6=A CAVERNA - O RAP DA MÁFIA (BY DJ GILMAR SINISTRO)
TTITLE7=FRANCO PERINI - TO RAVE (BY DJ GILMAR SINISTRO)
TTITLE8=RAÇA NEGRA - TIRO AO ÁLVARO (BY DJ GILMAR SINISTRO)
TTITLE9=JOSÉ AUGUSTO - A NOITE MAIS LINDA (BY DJ GILMAR SINISTRO)
TTITLE10=KID ABELHA and OS ABOBORAS SELVAGENS - EM 92 (BY DJ GILMAR SINISTRO)
TTITLE11=ULTRAGE A RIGOR - AH, SE EU FOSSE HOMEM... (BY DJ GILMAR SINISTRO)
TTITLE12=MARIA RITA - DOM DE ILUDIR (BY DJ GILMAR SINISTRO)
TTITLE13=SILENTE - SONHAR (PRA SEMPRE) (BY DJ GILMAR SINISTRO)
TTITLE14=GOLD MINE ORCHESTRA - TO DRIVE (BY DJ GILMAR SINISTRO)
EXTD=
EXTT0=Djavan
EXTT1=João Bosco
EXTT2=Skank
EXTT3=Emílio Santiago
EXTT4=Deborah Blando
EXTT5=Herbert Vianna
EXTT6=A Carverna
EXTT7=Franco Perini
EXTT8=Raça Negra
EXTT9=José Augusto
EXTT10=Kid Abelha
EXTT11=Ultraje a rigor
EXTT12=Maria Rita
EXTT13=Silent
EXTT14=Gold Mine Orchestra
PLAYORDER=
